<svg width="26" height="26" viewBox="0 0 26 26" fill="none" xmlns="http://www.w3.org/2000/svg">
<rect width="26" height="26" rx="10" fill="#F5F5F5"/>
<path d="M13.0188 10.0893C14.6858 10.0893 16.0372 8.72617 16.0372 7.04465C16.0372 5.36314 14.6858 4 13.0188 4C11.3517 4 10.0003 5.36314 10.0003 7.04465C10.0003 8.72617 11.3517 10.0893 13.0188 10.0893Z" stroke="#E95322" stroke-linecap="round" stroke-linejoin="round"/>
<path d="M18.5754 18.9824C17.1265 22.2652 13 21.9946 13 21.9946C13 21.9946 8.87078 22.2544 7.4246 18.9824C7.14471 18.3529 7 17.6709 7 16.981C7 16.2912 7.14471 15.6092 7.4246 14.9797C8.87078 11.6969 13 11.9675 13 11.9675C13 11.9675 17.1265 11.7077 18.5754 14.9797C18.8553 15.6092 19 16.2912 19 16.981C19 17.6709 18.8553 18.3529 18.5754 18.9824Z" stroke="#E95322" stroke-linecap="round" stroke-linejoin="round"/>
</svg>
