<svg width="26" height="26" viewBox="0 0 26 26" fill="none" xmlns="http://www.w3.org/2000/svg">
<rect width="26" height="26" rx="10" fill="#F5F5F5"/>
<path d="M13.779 22.0602C13.7481 22.3192 13.6231 22.558 13.4278 22.7311C13.2324 22.9043 12.9801 23 12.7188 23C12.4575 23 12.2053 22.9043 12.0099 22.7311C11.8145 22.558 11.6896 22.3192 11.6587 22.0602M6.24519 15.6918C6.71051 14.516 6.88438 13.2455 6.75203 11.9882C6.69498 11.4719 6.70708 10.9503 6.78802 10.4372C7.03471 8.97074 7.79409 7.63904 8.93124 6.67857C10.0684 5.71809 11.5097 5.19104 12.9993 5.19104C14.4888 5.19104 15.9302 5.71809 17.0673 6.67857C18.2045 7.63904 18.9638 8.97074 19.2105 10.4372C19.2914 10.9503 19.3035 11.4719 19.2465 11.9882C19.1172 13.2454 19.291 14.5153 19.7534 15.6918C19.942 16.1364 20.0243 16.6188 19.9938 17.1006C19.9632 17.5825 19.8206 18.0506 19.5773 18.4678C19.334 18.8851 18.9966 19.2401 18.5919 19.5045C18.1873 19.7689 17.7265 19.9356 17.246 19.9913C14.4247 20.3067 11.5769 20.3067 8.75548 19.9913C8.27508 19.9354 7.81431 19.7687 7.40963 19.5043C7.00496 19.2399 6.66748 18.885 6.42393 18.4679C6.18038 18.0508 6.03744 17.5827 6.00642 17.1009C5.97539 16.6191 6.05714 16.1367 6.24519 15.6918ZM14.1209 4.11678C14.1209 4.73357 13.6201 5.23357 13.0023 5.23357C12.3844 5.23357 11.8836 4.73357 11.8836 4.11678C11.8836 3.5 12.3844 3 13.0023 3C13.6201 3 14.1209 3.5 14.1209 4.11678Z" stroke="#E95322" stroke-linecap="round" stroke-linejoin="round"/>
</svg>
