<svg width="26" height="26" viewBox="0 0 26 26" fill="none" xmlns="http://www.w3.org/2000/svg">
<rect width="26" height="26" rx="10" fill="#F5F5F5"/>
<path d="M8.70635 14.6337C8.78968 14.978 8.99622 15.2839 9.29049 15.4988C9.58475 15.7138 9.94839 15.8242 10.3189 15.8113H18.6336C19.0037 15.8241 19.3669 15.7135 19.6607 15.4986C19.9545 15.2836 20.1605 14.9778 20.2433 14.6337L20.9683 9.88735C21.0174 9.64592 21.0094 9.39711 20.9451 9.15895C20.8808 8.92079 20.7618 8.69923 20.5966 8.51031C20.4314 8.3214 20.2243 8.16984 19.9901 8.06664C19.7559 7.96344 19.5006 7.91121 19.2427 7.91364H7.60137M8.70635 14.6337L7.60137 7.91364M8.70635 14.6337C8.70635 14.6337 9.04859 18.2108 12.7956 18.36H19.5066M7.60137 7.91364L7.27652 5.94262C7.22512 5.67832 7.07848 5.43945 6.86188 5.26732C6.64529 5.09519 6.3724 5.00065 6.09039 5H5M12.1054 19.6786C12.1054 20.4084 11.4847 21 10.7191 21C9.95345 21 9.33279 20.4084 9.33279 19.6786C9.33279 18.9489 9.95345 18.3573 10.7191 18.3573C11.4847 18.3573 12.1054 18.9489 12.1054 19.6786ZM20.8928 19.6786C20.8928 20.4084 20.2722 21 19.5066 21C18.7409 21 18.1203 20.4084 18.1203 19.6786C18.1203 18.9489 18.7409 18.3573 19.5066 18.3573C20.2722 18.3573 20.8928 18.9489 20.8928 19.6786Z" stroke="#E95322" stroke-linecap="round" stroke-linejoin="round"/>
</svg>
