<svg width="375" height="281" viewBox="0 0 375 281" fill="none" xmlns="http://www.w3.org/2000/svg">
<g filter="url(#filter0_d_386_2465)">
<rect x="57" y="83" width="261" height="164" rx="10" fill="#0C00DF"/>
</g>
<g filter="url(#filter1_d_386_2465)">
<rect x="44" y="61" width="287" height="178" rx="10" fill="#FF4267"/>
</g>
<g filter="url(#filter2_d_386_2465)">
<path d="M336.783 26H38.2174C30.3653 26 24 32.2557 24 39.9726V216.027C24 223.744 30.3653 230 38.2174 230H336.783C344.635 230 351 223.744 351 216.027V39.9726C351 32.2557 344.635 26 336.783 26Z" fill="#1573FF"/>
<mask id="mask0_386_2465" style="mask-type:alpha" maskUnits="userSpaceOnUse" x="24" y="26" width="327" height="204">
<path d="M336.783 26H38.2174C30.3653 26 24 32.2557 24 39.9726V216.027C24 223.744 30.3653 230 38.2174 230H336.783C344.635 230 351 223.744 351 216.027V39.9726C351 32.2557 344.635 26 336.783 26Z" fill="#DAEBFF"/>
</mask>
<g mask="url(#mask0_386_2465)">
<path d="M69.8991 348.172C167.489 348.172 246.601 270.422 246.601 174.513C246.601 78.6032 167.489 0.853149 69.8991 0.853149C-27.6906 0.853149 -106.803 78.6032 -106.803 174.513C-106.803 270.422 -27.6906 348.172 69.8991 348.172Z" fill="#1E1671"/>
<path d="M342.878 153.749C395.599 153.749 438.338 111.746 438.338 59.9327C438.338 8.1194 395.599 -33.8835 342.878 -33.8835C290.157 -33.8835 247.418 8.1194 247.418 59.9327C247.418 111.746 290.157 153.749 342.878 153.749Z" fill="#4EB4FF"/>
<path fill-rule="evenodd" clip-rule="evenodd" d="M287.346 198.394L291.046 187.87V187.871H295.042L289.104 203.345H285.109L281.721 190.029C284.114 191.321 286.259 193.924 286.943 196.319L287.346 198.394ZM296.564 187.87L294.202 203.36H297.978L300.339 187.87H296.564ZM307.955 194.18C306.635 193.493 305.826 193.03 305.826 192.327C305.842 191.689 306.51 191.035 308.002 191.035C309.229 191.002 310.131 191.306 310.815 191.608L311.157 191.769L311.671 188.528C310.925 188.225 309.742 187.89 308.281 187.89C304.552 187.89 301.926 189.933 301.91 192.855C301.879 195.011 303.79 196.207 305.22 196.925C306.681 197.661 307.178 198.138 307.178 198.793C307.162 199.797 305.997 200.26 304.91 200.26C303.403 200.26 302.594 200.022 301.366 199.462L300.869 199.223L300.341 202.592C301.228 203.007 302.859 203.373 304.552 203.391C308.516 203.391 311.094 201.379 311.127 198.266C311.14 196.557 310.132 195.249 307.955 194.18ZM318.43 187.918H321.352L324.397 203.373H320.902L320.335 200.287H315.902L314.81 203.36H310.847L316.456 189.164C316.846 188.19 317.53 187.918 318.43 187.918ZM317.001 197.183C317.082 197.175 318.522 192.167 318.522 192.167L319.672 197.183H317.001Z" fill="white"/>
<path d="M285.697 189.979C285.427 188.73 284.564 187.888 283.393 187.87H277.897L277.841 188.173C282.128 189.428 285.726 193.291 286.893 196.924L285.697 189.979Z" fill="white"/>
</g>
</g>
<path d="M54.7095 56.6946V69.0546C54.7095 70.4306 54.2855 71.5346 53.4375 72.3666C52.5895 73.1826 51.4695 73.5906 50.0775 73.5906C48.6695 73.5906 47.5415 73.1746 46.6935 72.3426C45.8455 71.4946 45.4215 70.3426 45.4215 68.8866H47.6055C47.6215 69.7026 47.8295 70.3666 48.2295 70.8786C48.6455 71.3906 49.2615 71.6466 50.0775 71.6466C50.8935 71.6466 51.5015 71.4066 51.9015 70.9266C52.3015 70.4306 52.5015 69.8066 52.5015 69.0546V56.6946H54.7095ZM64.7481 73.6386C63.5161 73.6386 62.3961 73.3586 61.3881 72.7986C60.3961 72.2386 59.6121 71.4466 59.0361 70.4226C58.4761 69.3826 58.1961 68.1826 58.1961 66.8226C58.1961 65.4786 58.4841 64.2946 59.0601 63.2706C59.6521 62.2306 60.4521 61.4386 61.4601 60.8946C62.4681 60.3346 63.5961 60.0546 64.8441 60.0546C66.0921 60.0546 67.2201 60.3346 68.2281 60.8946C69.2361 61.4386 70.0281 62.2226 70.6041 63.2466C71.1961 64.2706 71.4921 65.4626 71.4921 66.8226C71.4921 68.1826 71.1881 69.3826 70.5801 70.4226C69.9881 71.4466 69.1801 72.2386 68.1561 72.7986C67.1321 73.3586 65.9961 73.6386 64.7481 73.6386ZM64.7481 71.7186C65.5321 71.7186 66.2681 71.5346 66.9561 71.1666C67.6441 70.7986 68.1961 70.2466 68.6121 69.5106C69.0441 68.7746 69.2601 67.8786 69.2601 66.8226C69.2601 65.7666 69.0521 64.8706 68.6361 64.1346C68.2201 63.3986 67.6761 62.8546 67.0041 62.5026C66.3321 62.1346 65.6041 61.9506 64.8201 61.9506C64.0201 61.9506 63.2841 62.1346 62.6121 62.5026C61.9561 62.8546 61.4281 63.3986 61.0281 64.1346C60.6281 64.8706 60.4281 65.7666 60.4281 66.8226C60.4281 67.8946 60.6201 68.7986 61.0041 69.5346C61.4041 70.2706 61.9321 70.8226 62.5881 71.1906C63.2441 71.5426 63.9641 71.7186 64.7481 71.7186ZM80.8916 60.0306C81.8836 60.0306 82.7796 60.2466 83.5796 60.6786C84.3796 61.0946 85.0036 61.7266 85.4516 62.5746C85.9156 63.4226 86.1476 64.4546 86.1476 65.6706V73.4226H83.9876V65.9826C83.9876 64.6706 83.6596 63.6706 83.0036 62.9826C82.3476 62.2786 81.4516 61.9266 80.3156 61.9266C79.1636 61.9266 78.2436 62.2866 77.5556 63.0066C76.8836 63.7266 76.5476 64.7746 76.5476 66.1506V73.4226H74.3636V55.6626H76.5476V62.1426C76.9796 61.4706 77.5716 60.9506 78.3236 60.5826C79.0916 60.2146 79.9476 60.0306 80.8916 60.0306ZM96.1232 60.0306C97.7232 60.0306 99.0192 60.5186 100.011 61.4946C101.003 62.4546 101.499 63.8466 101.499 65.6706V73.4226H99.3392V65.9826C99.3392 64.6706 99.0112 63.6706 98.3552 62.9826C97.6992 62.2786 96.8032 61.9266 95.6672 61.9266C94.5152 61.9266 93.5952 62.2866 92.9072 63.0066C92.2352 63.7266 91.8992 64.7746 91.8992 66.1506V73.4226H89.7152V60.2706H91.8992V62.1426C92.3312 61.4706 92.9152 60.9506 93.6512 60.5826C94.4032 60.2146 95.2272 60.0306 96.1232 60.0306ZM116.769 73.5906C115.665 73.5906 114.673 73.3986 113.793 73.0146C112.929 72.6146 112.249 72.0706 111.753 71.3826C111.257 70.6786 111.001 69.8706 110.985 68.9586H113.313C113.393 69.7426 113.713 70.4066 114.273 70.9506C114.849 71.4786 115.681 71.7426 116.769 71.7426C117.809 71.7426 118.625 71.4866 119.217 70.9746C119.825 70.4466 120.129 69.7746 120.129 68.9586C120.129 68.3186 119.953 67.7986 119.601 67.3986C119.249 66.9986 118.809 66.6946 118.281 66.4866C117.753 66.2786 117.041 66.0546 116.145 65.8146C115.041 65.5266 114.153 65.2386 113.481 64.9506C112.825 64.6626 112.257 64.2146 111.777 63.6066C111.313 62.9826 111.081 62.1506 111.081 61.1106C111.081 60.1986 111.313 59.3906 111.777 58.6866C112.241 57.9826 112.889 57.4386 113.721 57.0546C114.569 56.6706 115.537 56.4786 116.625 56.4786C118.193 56.4786 119.473 56.8706 120.465 57.6546C121.473 58.4386 122.041 59.4786 122.169 60.7746H119.769C119.689 60.1346 119.353 59.5746 118.761 59.0946C118.169 58.5986 117.385 58.3506 116.409 58.3506C115.497 58.3506 114.753 58.5906 114.177 59.0706C113.601 59.5346 113.313 60.1906 113.313 61.0386C113.313 61.6466 113.481 62.1426 113.817 62.5266C114.169 62.9106 114.593 63.2066 115.089 63.4146C115.601 63.6066 116.313 63.8306 117.225 64.0866C118.329 64.3906 119.217 64.6946 119.889 64.9986C120.561 65.2866 121.137 65.7426 121.617 66.3666C122.097 66.9746 122.337 67.8066 122.337 68.8626C122.337 69.6786 122.121 70.4466 121.689 71.1666C121.257 71.8866 120.617 72.4706 119.769 72.9186C118.921 73.3666 117.921 73.5906 116.769 73.5906ZM141.367 60.0306C142.391 60.0306 143.303 60.2466 144.103 60.6786C144.903 61.0946 145.535 61.7266 145.999 62.5746C146.463 63.4226 146.695 64.4546 146.695 65.6706V73.4226H144.535V65.9826C144.535 64.6706 144.207 63.6706 143.551 62.9826C142.911 62.2786 142.039 61.9266 140.935 61.9266C139.799 61.9266 138.895 62.2946 138.223 63.0306C137.551 63.7506 137.215 64.7986 137.215 66.1746V73.4226H135.055V65.9826C135.055 64.6706 134.727 63.6706 134.071 62.9826C133.431 62.2786 132.559 61.9266 131.455 61.9266C130.319 61.9266 129.415 62.2946 128.743 63.0306C128.071 63.7506 127.735 64.7986 127.735 66.1746V73.4226H125.551V60.2706H127.735V62.1666C128.167 61.4786 128.743 60.9506 129.463 60.5826C130.199 60.2146 131.007 60.0306 131.887 60.0306C132.991 60.0306 133.967 60.2786 134.815 60.7746C135.663 61.2706 136.295 61.9986 136.711 62.9586C137.079 62.0306 137.687 61.3106 138.535 60.7986C139.383 60.2866 140.327 60.0306 141.367 60.0306ZM151.406 58.1346C150.99 58.1346 150.638 57.9906 150.35 57.7026C150.062 57.4146 149.918 57.0626 149.918 56.6466C149.918 56.2306 150.062 55.8786 150.35 55.5906C150.638 55.3026 150.99 55.1586 151.406 55.1586C151.806 55.1586 152.142 55.3026 152.414 55.5906C152.702 55.8786 152.846 56.2306 152.846 56.6466C152.846 57.0626 152.702 57.4146 152.414 57.7026C152.142 57.9906 151.806 58.1346 151.406 58.1346ZM152.462 60.2706V73.4226H150.278V60.2706H152.462ZM158.848 62.0706V69.8226C158.848 70.4626 158.984 70.9186 159.256 71.1906C159.528 71.4466 160 71.5746 160.672 71.5746H162.28V73.4226H160.312C159.096 73.4226 158.184 73.1426 157.576 72.5826C156.968 72.0226 156.664 71.1026 156.664 69.8226V62.0706H154.96V60.2706H156.664V56.9586H158.848V60.2706H162.28V62.0706H158.848ZM171.454 60.0306C172.446 60.0306 173.342 60.2466 174.142 60.6786C174.942 61.0946 175.566 61.7266 176.014 62.5746C176.478 63.4226 176.71 64.4546 176.71 65.6706V73.4226H174.55V65.9826C174.55 64.6706 174.222 63.6706 173.566 62.9826C172.91 62.2786 172.014 61.9266 170.878 61.9266C169.726 61.9266 168.806 62.2866 168.118 63.0066C167.446 63.7266 167.11 64.7746 167.11 66.1506V73.4226H164.926V55.6626H167.11V62.1426C167.542 61.4706 168.134 60.9506 168.886 60.5826C169.654 60.2146 170.51 60.0306 171.454 60.0306Z" fill="white"/>
<path d="M51.3535 129.836H47.2795L46.5795 131.824H44.9135L48.3995 122.08H50.2475L53.7335 131.824H52.0535L51.3535 129.836ZM50.9055 128.534L49.3235 124.012L47.7275 128.534H50.9055ZM64.5872 123.984C65.1939 123.984 65.7352 124.11 66.2112 124.362C66.6966 124.614 67.0746 124.988 67.3452 125.482C67.6252 125.977 67.7652 126.574 67.7652 127.274V131.824H66.1832V127.512C66.1832 126.822 66.0106 126.294 65.6652 125.93C65.3199 125.557 64.8486 125.37 64.2512 125.37C63.6539 125.37 63.1779 125.557 62.8232 125.93C62.4779 126.294 62.3052 126.822 62.3052 127.512V131.824H60.7232V127.512C60.7232 126.822 60.5506 126.294 60.2052 125.93C59.8599 125.557 59.3886 125.37 58.7912 125.37C58.1939 125.37 57.7179 125.557 57.3632 125.93C57.0179 126.294 56.8452 126.822 56.8452 127.512V131.824H55.2492V124.11H56.8452V124.992C57.1066 124.675 57.4379 124.428 57.8392 124.25C58.2406 124.073 58.6699 123.984 59.1272 123.984C59.7432 123.984 60.2939 124.115 60.7792 124.376C61.2646 124.638 61.6379 125.016 61.8992 125.51C62.1326 125.044 62.4966 124.675 62.9912 124.404C63.4859 124.124 64.0179 123.984 64.5872 123.984ZM69.2641 127.932C69.2641 127.158 69.4228 126.472 69.7401 125.874C70.0668 125.277 70.5054 124.815 71.0561 124.488C71.6161 124.152 72.2321 123.984 72.9041 123.984C73.5108 123.984 74.0381 124.106 74.4861 124.348C74.9434 124.582 75.3074 124.876 75.5781 125.23V124.11H77.1881V131.824H75.5781V130.676C75.3074 131.04 74.9388 131.344 74.4721 131.586C74.0054 131.829 73.4734 131.95 72.8761 131.95C72.2134 131.95 71.6068 131.782 71.0561 131.446C70.5054 131.101 70.0668 130.625 69.7401 130.018C69.4228 129.402 69.2641 128.707 69.2641 127.932ZM75.5781 127.96C75.5781 127.428 75.4661 126.966 75.2421 126.574C75.0274 126.182 74.7428 125.884 74.3881 125.678C74.0334 125.473 73.6508 125.37 73.2401 125.37C72.8294 125.37 72.4468 125.473 72.0921 125.678C71.7374 125.874 71.4481 126.168 71.2241 126.56C71.0094 126.943 70.9021 127.4 70.9021 127.932C70.9021 128.464 71.0094 128.931 71.2241 129.332C71.4481 129.734 71.7374 130.042 72.0921 130.256C72.4561 130.462 72.8388 130.564 73.2401 130.564C73.6508 130.564 74.0334 130.462 74.3881 130.256C74.7428 130.051 75.0274 129.752 75.2421 129.36C75.4661 128.959 75.5781 128.492 75.5781 127.96ZM80.6984 130.522H84.1984V131.824H78.8504V130.522L82.3644 125.412H78.8504V124.11H84.1984V125.412L80.6984 130.522ZM89.2202 131.95C88.4922 131.95 87.8342 131.787 87.2462 131.46C86.6582 131.124 86.1962 130.658 85.8602 130.06C85.5242 129.454 85.3562 128.754 85.3562 127.96C85.3562 127.176 85.5289 126.481 85.8742 125.874C86.2196 125.268 86.6909 124.801 87.2882 124.474C87.8856 124.148 88.5529 123.984 89.2902 123.984C90.0276 123.984 90.6949 124.148 91.2922 124.474C91.8896 124.801 92.3609 125.268 92.7062 125.874C93.0516 126.481 93.2242 127.176 93.2242 127.96C93.2242 128.744 93.0469 129.44 92.6922 130.046C92.3376 130.653 91.8522 131.124 91.2362 131.46C90.6296 131.787 89.9576 131.95 89.2202 131.95ZM89.2202 130.564C89.6309 130.564 90.0136 130.466 90.3682 130.27C90.7322 130.074 91.0262 129.78 91.2502 129.388C91.4742 128.996 91.5862 128.52 91.5862 127.96C91.5862 127.4 91.4789 126.929 91.2642 126.546C91.0496 126.154 90.7649 125.86 90.4102 125.664C90.0556 125.468 89.6729 125.37 89.2622 125.37C88.8516 125.37 88.4689 125.468 88.1142 125.664C87.7689 125.86 87.4936 126.154 87.2882 126.546C87.0829 126.929 86.9802 127.4 86.9802 127.96C86.9802 128.791 87.1902 129.435 87.6102 129.892C88.0396 130.34 88.5762 130.564 89.2202 130.564ZM98.694 123.984C99.3006 123.984 99.842 124.11 100.318 124.362C100.803 124.614 101.181 124.988 101.452 125.482C101.723 125.977 101.858 126.574 101.858 127.274V131.824H100.276V127.512C100.276 126.822 100.103 126.294 99.758 125.93C99.4126 125.557 98.9413 125.37 98.344 125.37C97.7466 125.37 97.2706 125.557 96.916 125.93C96.5706 126.294 96.398 126.822 96.398 127.512V131.824H94.802V124.11H96.398V124.992C96.6593 124.675 96.9906 124.428 97.392 124.25C97.8026 124.073 98.2366 123.984 98.694 123.984ZM114.334 124.992C114.334 125.487 114.218 125.954 113.984 126.392C113.751 126.831 113.378 127.19 112.864 127.47C112.351 127.741 111.693 127.876 110.89 127.876H109.126V131.824H107.53V122.094H110.89C111.637 122.094 112.267 122.225 112.78 122.486C113.303 122.738 113.69 123.084 113.942 123.522C114.204 123.961 114.334 124.451 114.334 124.992ZM110.89 126.574C111.497 126.574 111.95 126.439 112.248 126.168C112.547 125.888 112.696 125.496 112.696 124.992C112.696 123.928 112.094 123.396 110.89 123.396H109.126V126.574H110.89ZM117.453 121.464V131.824H115.857V121.464H117.453ZM119.016 127.932C119.016 127.158 119.175 126.472 119.492 125.874C119.819 125.277 120.257 124.815 120.808 124.488C121.368 124.152 121.984 123.984 122.656 123.984C123.263 123.984 123.79 124.106 124.238 124.348C124.695 124.582 125.059 124.876 125.33 125.23V124.11H126.94V131.824H125.33V130.676C125.059 131.04 124.691 131.344 124.224 131.586C123.757 131.829 123.225 131.95 122.628 131.95C121.965 131.95 121.359 131.782 120.808 131.446C120.257 131.101 119.819 130.625 119.492 130.018C119.175 129.402 119.016 128.707 119.016 127.932ZM125.33 127.96C125.33 127.428 125.218 126.966 124.994 126.574C124.779 126.182 124.495 125.884 124.14 125.678C123.785 125.473 123.403 125.37 122.992 125.37C122.581 125.37 122.199 125.473 121.844 125.678C121.489 125.874 121.2 126.168 120.976 126.56C120.761 126.943 120.654 127.4 120.654 127.932C120.654 128.464 120.761 128.931 120.976 129.332C121.2 129.734 121.489 130.042 121.844 130.256C122.208 130.462 122.591 130.564 122.992 130.564C123.403 130.564 123.785 130.462 124.14 130.256C124.495 130.051 124.779 129.752 124.994 129.36C125.218 128.959 125.33 128.492 125.33 127.96ZM130.898 125.412V129.682C130.898 129.972 130.964 130.182 131.094 130.312C131.234 130.434 131.468 130.494 131.794 130.494H132.774V131.824H131.514C130.796 131.824 130.245 131.656 129.862 131.32C129.48 130.984 129.288 130.438 129.288 129.682V125.412H128.378V124.11H129.288V122.192H130.898V124.11H132.774V125.412H130.898ZM135.057 123.088C134.768 123.088 134.525 122.99 134.329 122.794C134.133 122.598 134.035 122.356 134.035 122.066C134.035 121.777 134.133 121.534 134.329 121.338C134.525 121.142 134.768 121.044 135.057 121.044C135.337 121.044 135.575 121.142 135.771 121.338C135.967 121.534 136.065 121.777 136.065 122.066C136.065 122.356 135.967 122.598 135.771 122.794C135.575 122.99 135.337 123.088 135.057 123.088ZM135.841 124.11V131.824H134.245V124.11H135.841ZM141.829 123.984C142.435 123.984 142.977 124.11 143.453 124.362C143.938 124.614 144.316 124.988 144.587 125.482C144.857 125.977 144.993 126.574 144.993 127.274V131.824H143.411V127.512C143.411 126.822 143.238 126.294 142.893 125.93C142.547 125.557 142.076 125.37 141.479 125.37C140.881 125.37 140.405 125.557 140.051 125.93C139.705 126.294 139.533 126.822 139.533 127.512V131.824H137.937V124.11H139.533V124.992C139.794 124.675 140.125 124.428 140.527 124.25C140.937 124.073 141.371 123.984 141.829 123.984ZM147.841 123.088C147.551 123.088 147.309 122.99 147.113 122.794C146.917 122.598 146.819 122.356 146.819 122.066C146.819 121.777 146.917 121.534 147.113 121.338C147.309 121.142 147.551 121.044 147.841 121.044C148.121 121.044 148.359 121.142 148.555 121.338C148.751 121.534 148.849 121.777 148.849 122.066C148.849 122.356 148.751 122.598 148.555 122.794C148.359 122.99 148.121 123.088 147.841 123.088ZM148.625 124.11V131.824H147.029V124.11H148.625ZM157.706 124.11V131.824H156.11V130.914C155.858 131.232 155.527 131.484 155.116 131.67C154.715 131.848 154.285 131.936 153.828 131.936C153.221 131.936 152.675 131.81 152.19 131.558C151.714 131.306 151.336 130.933 151.056 130.438C150.785 129.944 150.65 129.346 150.65 128.646V124.11H152.232V128.408C152.232 129.099 152.405 129.631 152.75 130.004C153.095 130.368 153.567 130.55 154.164 130.55C154.761 130.55 155.233 130.368 155.578 130.004C155.933 129.631 156.11 129.099 156.11 128.408V124.11H157.706ZM169.15 123.984C169.756 123.984 170.298 124.11 170.774 124.362C171.259 124.614 171.637 124.988 171.908 125.482C172.188 125.977 172.328 126.574 172.328 127.274V131.824H170.746V127.512C170.746 126.822 170.573 126.294 170.228 125.93C169.882 125.557 169.411 125.37 168.814 125.37C168.216 125.37 167.74 125.557 167.386 125.93C167.04 126.294 166.868 126.822 166.868 127.512V131.824H165.286V127.512C165.286 126.822 165.113 126.294 164.768 125.93C164.422 125.557 163.951 125.37 163.354 125.37C162.756 125.37 162.28 125.557 161.926 125.93C161.58 126.294 161.408 126.822 161.408 127.512V131.824H159.812V124.11H161.408V124.992C161.669 124.675 162 124.428 162.402 124.25C162.803 124.073 163.232 123.984 163.69 123.984C164.306 123.984 164.856 124.115 165.342 124.376C165.827 124.638 166.2 125.016 166.462 125.51C166.695 125.044 167.059 124.675 167.554 124.404C168.048 124.124 168.58 123.984 169.15 123.984Z" fill="white"/>
<path d="M45.2538 163.38V162.276L50.8698 154.5H52.6138V162.116H54.2138V163.38H52.6138V165.956H51.1738V163.38H45.2538ZM51.2378 156.02L46.9338 162.116H51.2378V156.02ZM62.7883 155.524L58.3403 165.956H56.8683L61.3803 155.668H55.2043V154.42H62.7883V155.524ZM71.7786 155.652H66.1626V159.3C66.408 158.959 66.7706 158.682 67.2506 158.468C67.7306 158.244 68.248 158.132 68.8026 158.132C69.688 158.132 70.408 158.319 70.9626 158.692C71.5173 159.055 71.912 159.53 72.1466 160.116C72.392 160.692 72.5146 161.306 72.5146 161.956C72.5146 162.724 72.3706 163.412 72.0826 164.02C71.7946 164.628 71.352 165.108 70.7546 165.46C70.168 165.812 69.4373 165.988 68.5626 165.988C67.4426 165.988 66.536 165.7 65.8426 165.124C65.1493 164.548 64.728 163.78 64.5786 162.82H66.0026C66.1413 163.428 66.4346 163.903 66.8826 164.244C67.3306 164.586 67.896 164.756 68.5786 164.756C69.4213 164.756 70.056 164.506 70.4826 164.004C70.9093 163.492 71.1226 162.82 71.1226 161.988C71.1226 161.156 70.9093 160.516 70.4826 160.068C70.056 159.61 69.4266 159.38 68.5946 159.38C68.0293 159.38 67.5333 159.519 67.1066 159.796C66.6906 160.063 66.3866 160.431 66.1946 160.9H64.8186V154.372H71.7786V155.652ZM80.8975 157.14C80.6629 155.956 79.9322 155.364 78.7055 155.364C77.7562 155.364 77.0469 155.732 76.5775 156.468C76.1082 157.194 75.8789 158.394 75.8895 160.068C76.1349 159.514 76.5402 159.082 77.1055 158.772C77.6815 158.452 78.3215 158.292 79.0255 158.292C80.1242 158.292 80.9989 158.634 81.6495 159.316C82.3109 159.999 82.6415 160.943 82.6415 162.148C82.6415 162.874 82.4975 163.524 82.2095 164.1C81.9322 164.676 81.5055 165.135 80.9295 165.476C80.3642 165.818 79.6762 165.988 78.8655 165.988C77.7669 165.988 76.9082 165.743 76.2895 165.252C75.6709 164.762 75.2389 164.084 74.9935 163.22C74.7482 162.356 74.6255 161.29 74.6255 160.02C74.6255 156.106 75.9909 154.148 78.7215 154.148C79.7669 154.148 80.5882 154.431 81.1855 154.996C81.7829 155.562 82.1349 156.276 82.2415 157.14H80.8975ZM78.7215 159.524C78.2629 159.524 77.8309 159.62 77.4255 159.812C77.0202 159.994 76.6895 160.276 76.4335 160.66C76.1882 161.034 76.0655 161.492 76.0655 162.036C76.0655 162.847 76.3002 163.508 76.7695 164.02C77.2389 164.522 77.9109 164.772 78.7855 164.772C79.5322 164.772 80.1242 164.543 80.5615 164.084C81.0095 163.615 81.2335 162.986 81.2335 162.196C81.2335 161.364 81.0202 160.714 80.5935 160.244C80.1669 159.764 79.5429 159.524 78.7215 159.524Z" fill="white"/>
<path d="M199.739 162.852C199.846 163.46 200.091 163.93 200.475 164.26C200.87 164.591 201.398 164.756 202.059 164.756C202.944 164.756 203.595 164.41 204.011 163.716C204.438 163.023 204.64 161.855 204.619 160.212C204.395 160.692 204.022 161.071 203.499 161.348C202.976 161.615 202.395 161.748 201.755 161.748C201.04 161.748 200.4 161.604 199.835 161.316C199.28 161.018 198.843 160.586 198.523 160.02C198.203 159.455 198.043 158.772 198.043 157.972C198.043 156.831 198.374 155.914 199.035 155.22C199.696 154.516 200.635 154.164 201.851 154.164C203.344 154.164 204.39 154.65 204.987 155.62C205.595 156.591 205.899 158.036 205.899 159.956C205.899 161.3 205.776 162.41 205.531 163.284C205.296 164.159 204.891 164.826 204.315 165.284C203.75 165.743 202.971 165.972 201.979 165.972C200.891 165.972 200.043 165.679 199.435 165.092C198.827 164.506 198.48 163.759 198.395 162.852H199.739ZM201.995 160.516C202.71 160.516 203.296 160.298 203.755 159.86C204.214 159.412 204.443 158.81 204.443 158.052C204.443 157.252 204.219 156.607 203.771 156.116C203.323 155.626 202.694 155.38 201.883 155.38C201.136 155.38 200.539 155.615 200.091 156.084C199.654 156.554 199.435 157.172 199.435 157.94C199.435 158.719 199.654 159.343 200.091 159.812C200.528 160.282 201.163 160.516 201.995 160.516ZM207.945 160.052C207.945 158.218 208.244 156.788 208.841 155.764C209.438 154.73 210.484 154.212 211.977 154.212C213.46 154.212 214.5 154.73 215.097 155.764C215.694 156.788 215.993 158.218 215.993 160.052C215.993 161.919 215.694 163.37 215.097 164.404C214.5 165.439 213.46 165.956 211.977 165.956C210.484 165.956 209.438 165.439 208.841 164.404C208.244 163.37 207.945 161.919 207.945 160.052ZM214.553 160.052C214.553 159.124 214.489 158.34 214.361 157.7C214.244 157.05 213.993 156.527 213.609 156.132C213.236 155.738 212.692 155.54 211.977 155.54C211.252 155.54 210.697 155.738 210.313 156.132C209.94 156.527 209.689 157.05 209.561 157.7C209.444 158.34 209.385 159.124 209.385 160.052C209.385 161.012 209.444 161.818 209.561 162.468C209.689 163.119 209.94 163.642 210.313 164.036C210.697 164.431 211.252 164.628 211.977 164.628C212.692 164.628 213.236 164.431 213.609 164.036C213.993 163.642 214.244 163.119 214.361 162.468C214.489 161.818 214.553 161.012 214.553 160.052ZM217.608 155.716V154.388H220.616V165.956H219.144V155.716H217.608ZM225.229 159.94C224.632 159.706 224.173 159.364 223.853 158.916C223.533 158.468 223.373 157.924 223.373 157.284C223.373 156.708 223.517 156.191 223.805 155.732C224.093 155.263 224.52 154.895 225.085 154.628C225.661 154.351 226.354 154.212 227.165 154.212C227.976 154.212 228.664 154.351 229.229 154.628C229.805 154.895 230.237 155.263 230.525 155.732C230.824 156.191 230.973 156.708 230.973 157.284C230.973 157.903 230.808 158.447 230.477 158.916C230.146 159.375 229.693 159.716 229.117 159.94C229.778 160.143 230.301 160.5 230.685 161.012C231.08 161.514 231.277 162.122 231.277 162.836C231.277 163.53 231.106 164.138 230.765 164.66C230.424 165.172 229.938 165.572 229.309 165.86C228.69 166.138 227.976 166.276 227.165 166.276C226.354 166.276 225.64 166.138 225.021 165.86C224.413 165.572 223.938 165.172 223.597 164.66C223.256 164.138 223.085 163.53 223.085 162.836C223.085 162.122 223.277 161.508 223.661 160.996C224.045 160.484 224.568 160.132 225.229 159.94ZM229.565 157.46C229.565 156.81 229.352 156.308 228.925 155.956C228.498 155.604 227.912 155.428 227.165 155.428C226.429 155.428 225.848 155.604 225.421 155.956C224.994 156.308 224.781 156.815 224.781 157.476C224.781 158.074 225 158.554 225.437 158.916C225.885 159.279 226.461 159.46 227.165 159.46C227.88 159.46 228.456 159.279 228.893 158.916C229.341 158.543 229.565 158.058 229.565 157.46ZM227.165 160.58C226.376 160.58 225.73 160.767 225.229 161.14C224.728 161.503 224.477 162.052 224.477 162.788C224.477 163.471 224.717 164.02 225.197 164.436C225.688 164.852 226.344 165.06 227.165 165.06C227.986 165.06 228.637 164.852 229.117 164.436C229.597 164.02 229.837 163.471 229.837 162.788C229.837 162.074 229.592 161.53 229.101 161.156C228.61 160.772 227.965 160.58 227.165 160.58Z" fill="white"/>
<path d="M128.504 161.744C128.495 161.217 128.644 160.699 128.931 160.257C129.219 159.815 129.631 159.469 130.116 159.261C130.601 159.054 131.137 158.995 131.656 159.093C132.175 159.191 132.652 159.441 133.028 159.81C133.404 160.18 133.662 160.653 133.768 161.169C133.874 161.685 133.824 162.221 133.624 162.709C133.423 163.196 133.083 163.613 132.644 163.907C132.206 164.2 131.69 164.357 131.162 164.357C130.463 164.363 129.79 164.09 129.291 163.6C128.792 163.11 128.509 162.442 128.504 161.744ZM118.537 161.744C118.529 161.217 118.678 160.699 118.965 160.257C119.252 159.815 119.665 159.469 120.15 159.261C120.635 159.054 121.171 158.995 121.69 159.093C122.208 159.191 122.686 159.441 123.062 159.81C123.438 160.18 123.695 160.653 123.801 161.169C123.907 161.685 123.857 162.221 123.657 162.709C123.457 163.196 123.116 163.613 122.678 163.907C122.24 164.2 121.724 164.357 121.196 164.357C120.85 164.36 120.506 164.295 120.185 164.165C119.864 164.035 119.571 163.843 119.324 163.6C119.077 163.358 118.881 163.069 118.746 162.75C118.61 162.432 118.54 162.09 118.537 161.744H118.537ZM108.566 161.744C108.558 161.217 108.707 160.699 108.994 160.257C109.281 159.815 109.694 159.469 110.179 159.261C110.664 159.054 111.2 158.995 111.719 159.093C112.237 159.191 112.715 159.441 113.091 159.81C113.467 160.18 113.725 160.653 113.831 161.169C113.937 161.685 113.886 162.221 113.686 162.709C113.486 163.196 113.145 163.613 112.707 163.907C112.269 164.2 111.753 164.357 111.225 164.357C110.526 164.363 109.852 164.09 109.354 163.6C108.855 163.11 108.572 162.442 108.566 161.744ZM98.6 161.744C98.5917 161.217 98.7406 160.699 99.0278 160.257C99.315 159.815 99.7274 159.469 100.213 159.261C100.698 159.054 101.234 158.995 101.752 159.093C102.271 159.191 102.749 159.441 103.125 159.81C103.501 160.18 103.758 160.653 103.864 161.169C103.97 161.685 103.92 162.221 103.72 162.709C103.52 163.196 103.179 163.613 102.741 163.907C102.303 164.2 101.787 164.357 101.259 164.357C100.912 164.36 100.569 164.295 100.247 164.165C99.9263 164.035 99.634 163.843 99.387 163.6C99.1401 163.358 98.9434 163.069 98.8083 162.75C98.6732 162.432 98.6023 162.09 98.5996 161.744H98.6Z" fill="white"/>
<path d="M175.029 161.74C175.021 161.213 175.17 160.696 175.457 160.254C175.745 159.812 176.157 159.465 176.642 159.258C177.127 159.05 177.663 158.992 178.182 159.09C178.701 159.187 179.178 159.437 179.554 159.807C179.93 160.176 180.188 160.649 180.294 161.165C180.4 161.682 180.349 162.218 180.149 162.705C179.949 163.193 179.609 163.61 179.17 163.903C178.732 164.197 178.216 164.354 177.689 164.354C176.989 164.359 176.315 164.087 175.817 163.597C175.318 163.106 175.035 162.439 175.029 161.74ZM165.059 161.74C165.051 161.213 165.2 160.696 165.487 160.254C165.774 159.812 166.187 159.465 166.672 159.258C167.157 159.05 167.693 158.992 168.211 159.09C168.73 159.187 169.208 159.437 169.584 159.807C169.96 160.176 170.217 160.649 170.323 161.165C170.429 161.682 170.379 162.218 170.179 162.705C169.979 163.193 169.638 163.61 169.2 163.903C168.762 164.197 168.246 164.354 167.718 164.354C167.018 164.359 166.345 164.087 165.846 163.597C165.348 163.106 165.065 162.439 165.059 161.74ZM155.092 161.74C155.084 161.213 155.233 160.696 155.52 160.254C155.807 159.812 156.22 159.465 156.705 159.258C157.19 159.05 157.726 158.992 158.245 159.09C158.763 159.187 159.241 159.437 159.617 159.807C159.993 160.176 160.251 160.649 160.357 161.165C160.463 161.682 160.412 162.218 160.212 162.705C160.012 163.193 159.671 163.61 159.233 163.903C158.795 164.197 158.279 164.354 157.751 164.354C157.052 164.359 156.378 164.087 155.88 163.597C155.381 163.106 155.098 162.439 155.092 161.74ZM145.122 161.74C145.114 161.213 145.263 160.696 145.55 160.254C145.837 159.812 146.249 159.465 146.735 159.258C147.22 159.05 147.756 158.992 148.274 159.09C148.793 159.187 149.271 159.437 149.647 159.807C150.023 160.176 150.28 160.649 150.386 161.165C150.492 161.682 150.442 162.218 150.242 162.705C150.042 163.193 149.701 163.61 149.263 163.903C148.825 164.197 148.309 164.354 147.781 164.354C147.081 164.359 146.408 164.087 145.909 163.597C145.411 163.106 145.127 162.439 145.122 161.74Z" fill="white"/>
<path d="M55.7775 192.921C55.7775 193.615 55.5975 194.268 55.2375 194.881C54.8908 195.481 54.3708 195.981 53.6775 196.381C52.9975 196.768 52.1908 196.995 51.2575 197.061V198.681H49.9775V197.041C48.6442 196.921 47.5708 196.521 46.7575 195.841C45.9442 195.148 45.5242 194.215 45.4975 193.041H48.4975C48.5775 194.001 49.0708 194.581 49.9775 194.781V190.961C49.0175 190.721 48.2442 190.481 47.6575 190.241C47.0708 190.001 46.5642 189.615 46.1375 189.081C45.7108 188.548 45.4975 187.821 45.4975 186.901C45.4975 185.741 45.9108 184.795 46.7375 184.061C47.5775 183.328 48.6575 182.908 49.9775 182.801V181.181H51.2575V182.801C52.5375 182.908 53.5575 183.295 54.3175 183.961C55.0908 184.628 55.5242 185.548 55.6175 186.721H52.5975C52.5575 186.335 52.4175 186.001 52.1775 185.721C51.9508 185.428 51.6442 185.221 51.2575 185.101V188.881C52.2575 189.135 53.0442 189.381 53.6175 189.621C54.2042 189.848 54.7108 190.228 55.1375 190.761C55.5642 191.281 55.7775 192.001 55.7775 192.921ZM48.4175 186.761C48.4175 187.201 48.5508 187.561 48.8175 187.841C49.0842 188.108 49.4708 188.328 49.9775 188.501V185.041C49.4975 185.108 49.1175 185.288 48.8375 185.581C48.5575 185.875 48.4175 186.268 48.4175 186.761ZM51.2575 194.821C51.7642 194.728 52.1575 194.521 52.4375 194.201C52.7308 193.881 52.8775 193.495 52.8775 193.041C52.8775 192.601 52.7375 192.248 52.4575 191.981C52.1775 191.715 51.7775 191.495 51.2575 191.321V194.821ZM58.6234 186.201C58.6901 184.868 59.1568 183.841 60.0234 183.121C60.9034 182.388 62.0568 182.021 63.4834 182.021C64.4568 182.021 65.2901 182.195 65.9834 182.541C66.6768 182.875 67.1968 183.335 67.5434 183.921C67.9034 184.495 68.0834 185.148 68.0834 185.881C68.0834 186.721 67.8634 187.435 67.4234 188.021C66.9968 188.595 66.4834 188.981 65.8834 189.181V189.261C66.6568 189.501 67.2568 189.928 67.6834 190.541C68.1234 191.155 68.3434 191.941 68.3434 192.901C68.3434 193.701 68.1568 194.415 67.7834 195.041C67.4234 195.668 66.8834 196.161 66.1634 196.521C65.4568 196.868 64.6034 197.041 63.6034 197.041C62.0968 197.041 60.8701 196.661 59.9234 195.901C58.9768 195.141 58.4768 194.021 58.4234 192.541H61.1434C61.1701 193.195 61.3901 193.721 61.8034 194.121C62.2301 194.508 62.8101 194.701 63.5434 194.701C64.2234 194.701 64.7434 194.515 65.1034 194.141C65.4768 193.755 65.6634 193.261 65.6634 192.661C65.6634 191.861 65.4101 191.288 64.9034 190.941C64.3968 190.595 63.6101 190.421 62.5434 190.421H61.9634V188.121H62.5434C64.4368 188.121 65.3834 187.488 65.3834 186.221C65.3834 185.648 65.2101 185.201 64.8634 184.881C64.5301 184.561 64.0434 184.401 63.4034 184.401C62.7768 184.401 62.2901 184.575 61.9434 184.921C61.6101 185.255 61.4168 185.681 61.3634 186.201H58.6234ZM72.1161 197.081C71.6094 197.081 71.1894 196.928 70.8561 196.621C70.5361 196.301 70.3761 195.908 70.3761 195.441C70.3761 194.975 70.5361 194.588 70.8561 194.281C71.1894 193.961 71.6094 193.801 72.1161 193.801C72.6094 193.801 73.0161 193.961 73.3361 194.281C73.6561 194.588 73.8161 194.975 73.8161 195.441C73.8161 195.908 73.6561 196.301 73.3361 196.621C73.0161 196.928 72.6094 197.081 72.1161 197.081ZM75.6314 194.101V191.901L82.1714 182.541H85.4314V191.661H87.1914V194.101H85.4314V196.941H82.6314V194.101H75.6314ZM82.8114 185.541L78.7114 191.661H82.8114V185.541ZM96.5341 186.001C96.4007 185.441 96.1674 185.021 95.8341 184.741C95.5141 184.461 95.0474 184.321 94.4341 184.321C93.5141 184.321 92.8341 184.695 92.3941 185.441C91.9674 186.175 91.7474 187.375 91.7341 189.041C92.0541 188.508 92.5207 188.095 93.1341 187.801C93.7474 187.495 94.4141 187.341 95.1341 187.341C96.0007 187.341 96.7674 187.528 97.4341 187.901C98.1007 188.275 98.6207 188.821 98.9941 189.541C99.3674 190.248 99.5541 191.101 99.5541 192.101C99.5541 193.048 99.3607 193.895 98.9741 194.641C98.6007 195.375 98.0474 195.948 97.3141 196.361C96.5807 196.775 95.7074 196.981 94.6941 196.981C93.3074 196.981 92.2141 196.675 91.4141 196.061C90.6274 195.448 90.0741 194.595 89.7541 193.501C89.4474 192.395 89.2941 191.035 89.2941 189.421C89.2941 186.981 89.7141 185.141 90.5541 183.901C91.3941 182.648 92.7207 182.021 94.5341 182.021C95.9341 182.021 97.0207 182.401 97.7941 183.161C98.5674 183.921 99.0141 184.868 99.1341 186.001H96.5341ZM94.4941 189.641C93.7874 189.641 93.1941 189.848 92.7141 190.261C92.2341 190.675 91.9941 191.275 91.9941 192.061C91.9941 192.848 92.2141 193.468 92.6541 193.921C93.1074 194.375 93.7407 194.601 94.5541 194.601C95.2741 194.601 95.8407 194.381 96.2541 193.941C96.6807 193.501 96.8941 192.908 96.8941 192.161C96.8941 191.388 96.6874 190.775 96.2741 190.321C95.8741 189.868 95.2807 189.641 94.4941 189.641ZM105.007 192.841C105.114 193.428 105.354 193.881 105.727 194.201C106.114 194.508 106.627 194.661 107.267 194.661C108.094 194.661 108.694 194.321 109.067 193.641C109.44 192.948 109.627 191.788 109.627 190.161C109.32 190.588 108.887 190.921 108.327 191.161C107.78 191.401 107.187 191.521 106.547 191.521C105.694 191.521 104.92 191.348 104.227 191.001C103.547 190.641 103.007 190.115 102.607 189.421C102.207 188.715 102.007 187.861 102.007 186.861C102.007 185.381 102.447 184.208 103.327 183.341C104.207 182.461 105.407 182.021 106.927 182.021C108.82 182.021 110.154 182.628 110.927 183.841C111.714 185.055 112.107 186.881 112.107 189.321C112.107 191.055 111.954 192.475 111.647 193.581C111.354 194.688 110.84 195.528 110.107 196.101C109.387 196.675 108.4 196.961 107.147 196.961C106.16 196.961 105.32 196.775 104.627 196.401C103.934 196.015 103.4 195.515 103.027 194.901C102.667 194.275 102.46 193.588 102.407 192.841H105.007ZM107.127 189.241C107.82 189.241 108.367 189.028 108.767 188.601C109.167 188.175 109.367 187.601 109.367 186.881C109.367 186.095 109.154 185.488 108.727 185.061C108.314 184.621 107.747 184.401 107.027 184.401C106.307 184.401 105.734 184.628 105.307 185.081C104.894 185.521 104.687 186.108 104.687 186.841C104.687 187.548 104.887 188.128 105.287 188.581C105.7 189.021 106.314 189.241 107.127 189.241ZM115.847 197.081C115.34 197.081 114.92 196.928 114.587 196.621C114.267 196.301 114.107 195.908 114.107 195.441C114.107 194.975 114.267 194.588 114.587 194.281C114.92 193.961 115.34 193.801 115.847 193.801C116.34 193.801 116.747 193.961 117.067 194.281C117.387 194.588 117.547 194.975 117.547 195.441C117.547 195.908 117.387 196.301 117.067 196.621C116.747 196.928 116.34 197.081 115.847 197.081ZM129.282 184.781H122.802V188.201C123.082 187.855 123.482 187.575 124.002 187.361C124.522 187.135 125.075 187.021 125.662 187.021C126.729 187.021 127.602 187.255 128.282 187.721C128.962 188.188 129.455 188.788 129.762 189.521C130.069 190.241 130.222 191.015 130.222 191.841C130.222 193.375 129.782 194.608 128.902 195.541C128.035 196.475 126.795 196.941 125.182 196.941C123.662 196.941 122.449 196.561 121.542 195.801C120.635 195.041 120.122 194.048 120.002 192.821H122.722C122.842 193.355 123.109 193.781 123.522 194.101C123.949 194.421 124.489 194.581 125.142 194.581C125.929 194.581 126.522 194.335 126.922 193.841C127.322 193.348 127.522 192.695 127.522 191.881C127.522 191.055 127.315 190.428 126.902 190.001C126.502 189.561 125.909 189.341 125.122 189.341C124.562 189.341 124.095 189.481 123.722 189.761C123.349 190.041 123.082 190.415 122.922 190.881H120.242V182.321H129.282V184.781ZM133.233 193.781C134.513 192.715 135.533 191.828 136.293 191.121C137.053 190.401 137.686 189.655 138.193 188.881C138.7 188.108 138.953 187.348 138.953 186.601C138.953 185.921 138.793 185.388 138.473 185.001C138.153 184.615 137.66 184.421 136.993 184.421C136.326 184.421 135.813 184.648 135.453 185.101C135.093 185.541 134.906 186.148 134.893 186.921H132.173C132.226 185.321 132.7 184.108 133.593 183.281C134.5 182.455 135.646 182.041 137.033 182.041C138.553 182.041 139.72 182.448 140.533 183.261C141.346 184.061 141.753 185.121 141.753 186.441C141.753 187.481 141.473 188.475 140.913 189.421C140.353 190.368 139.713 191.195 138.993 191.901C138.273 192.595 137.333 193.435 136.173 194.421H142.073V196.741H132.193V194.661L133.233 193.781Z" fill="white"/>
<defs>
<filter id="filter0_d_386_2465" x="27" y="57" width="321" height="224" filterUnits="userSpaceOnUse" color-interpolation-filters="sRGB">
<feFlood flood-opacity="0" result="BackgroundImageFix"/>
<feColorMatrix in="SourceAlpha" type="matrix" values="0 0 0 0 0 0 0 0 0 0 0 0 0 0 0 0 0 0 127 0" result="hardAlpha"/>
<feOffset dy="4"/>
<feGaussianBlur stdDeviation="15"/>
<feColorMatrix type="matrix" values="0 0 0 0 0.211765 0 0 0 0 0.160784 0 0 0 0 0.717647 0 0 0 0.07 0"/>
<feBlend mode="normal" in2="BackgroundImageFix" result="effect1_dropShadow_386_2465"/>
<feBlend mode="normal" in="SourceGraphic" in2="effect1_dropShadow_386_2465" result="shape"/>
</filter>
<filter id="filter1_d_386_2465" x="14" y="35" width="347" height="238" filterUnits="userSpaceOnUse" color-interpolation-filters="sRGB">
<feFlood flood-opacity="0" result="BackgroundImageFix"/>
<feColorMatrix in="SourceAlpha" type="matrix" values="0 0 0 0 0 0 0 0 0 0 0 0 0 0 0 0 0 0 127 0" result="hardAlpha"/>
<feOffset dy="4"/>
<feGaussianBlur stdDeviation="15"/>
<feColorMatrix type="matrix" values="0 0 0 0 0.211765 0 0 0 0 0.160784 0 0 0 0 0.717647 0 0 0 0.07 0"/>
<feBlend mode="normal" in2="BackgroundImageFix" result="effect1_dropShadow_386_2465"/>
<feBlend mode="normal" in="SourceGraphic" in2="effect1_dropShadow_386_2465" result="shape"/>
</filter>
<filter id="filter2_d_386_2465" x="-6" y="0" width="387" height="264" filterUnits="userSpaceOnUse" color-interpolation-filters="sRGB">
<feFlood flood-opacity="0" result="BackgroundImageFix"/>
<feColorMatrix in="SourceAlpha" type="matrix" values="0 0 0 0 0 0 0 0 0 0 0 0 0 0 0 0 0 0 127 0" result="hardAlpha"/>
<feOffset dy="4"/>
<feGaussianBlur stdDeviation="15"/>
<feColorMatrix type="matrix" values="0 0 0 0 0.211765 0 0 0 0 0.160784 0 0 0 0 0.717647 0 0 0 0.07 0"/>
<feBlend mode="normal" in2="BackgroundImageFix" result="effect1_dropShadow_386_2465"/>
<feBlend mode="normal" in="SourceGraphic" in2="effect1_dropShadow_386_2465" result="shape"/>
</filter>
</defs>
</svg>
