<svg width="26" height="28" viewBox="0 0 26 28" fill="none" xmlns="http://www.w3.org/2000/svg">
<path d="M21.8551 22.4821C20.6698 20.5233 20.0294 18.2834 20.0001 15.9941V12.0061C20.0001 9.88437 19.1573 7.84954 17.657 6.34925C16.1567 4.84896 14.1218 4.0061 12.0001 4.0061C9.87838 4.0061 7.84354 4.84896 6.34325 6.34925C4.84296 7.84954 4.00011 9.88437 4.00011 12.0061V15.9881C3.97182 18.2794 3.33137 20.5215 2.14511 22.4821C2.05328 22.6337 2.00341 22.8071 2.00061 22.9843C1.99782 23.1616 2.04219 23.3364 2.12919 23.4909C2.21619 23.6453 2.34269 23.7739 2.49572 23.8634C2.64876 23.9528 2.82283 24 3.00011 24.0001H21.0001C21.1774 24 21.3515 23.9528 21.5045 23.8634C21.6575 23.7739 21.784 23.6453 21.871 23.4909C21.958 23.3364 22.0024 23.1616 21.9996 22.9843C21.9968 22.8071 21.9469 22.6337 21.8551 22.4821Z" fill="white"/>
<path d="M13.0073 27.8251C13.4264 27.6758 13.8071 27.4351 14.1217 27.1205C14.4363 26.8059 14.677 26.4252 14.8263 26.0061H9.17432C9.30655 26.3772 9.51059 26.7187 9.77478 27.0109C10.039 27.3032 10.3582 27.5406 10.7141 27.7095C11.07 27.8784 11.4557 27.9755 11.8492 27.9954C12.2427 28.0152 12.6362 27.9574 13.0073 27.8251Z" fill="white"/>
<path fill-rule="evenodd" clip-rule="evenodd" d="M18 16C22.4183 16 26 12.4183 26 8C26 3.58172 22.4183 0 18 0C13.5817 0 10 3.58172 10 8C10 12.4183 13.5817 16 18 16Z" fill="#FF4267"/>
<path d="M18 4.72C18.4667 4.72 18.8667 4.80333 19.2 4.97C19.5333 5.13 19.7833 5.35333 19.95 5.64C20.1233 5.92667 20.21 6.24667 20.21 6.6C20.21 7.04667 20.0833 7.42 19.83 7.72C19.5833 8.01333 19.2333 8.19 18.78 8.25V8.3C19.2667 8.44 19.6467 8.65 19.92 8.93C20.2 9.20333 20.34 9.58333 20.34 10.07C20.34 10.6633 20.1433 11.1467 19.75 11.52C19.3567 11.8867 18.7933 12.07 18.06 12.07C17.3067 12.07 16.7 11.88 16.24 11.5C15.78 11.1133 15.5167 10.5433 15.45 9.79H16.58C16.62 10.19 16.7633 10.51 17.01 10.75C17.2567 10.9833 17.59 11.1 18.01 11.1C18.4033 11.1 18.7033 10.9967 18.91 10.79C19.1233 10.5833 19.23 10.3167 19.23 9.99C19.23 9.59667 19.0767 9.29667 18.77 9.09C18.47 8.88333 18.0333 8.78 17.46 8.78H17.19V7.84H17.46C18.5467 7.85333 19.09 7.48333 19.09 6.73C19.09 6.40333 18.99 6.14667 18.79 5.96C18.59 5.77333 18.3167 5.68 17.97 5.68C17.6233 5.68 17.3333 5.78667 17.1 6C16.8667 6.20667 16.7267 6.51 16.68 6.91H15.56C15.6067 6.21667 15.84 5.68 16.26 5.3C16.68 4.91333 17.26 4.72 18 4.72Z" fill="white"/>
</svg>
